<svg width="730" height="731" viewBox="0 0 730 731" fill="none" xmlns="http://www.w3.org/2000/svg">
<g clip-path="url(#clip0_301_2)">
<path d="M304.939 34.7241C342.098 13.2407 387.902 13.2407 425.062 34.7241L621.161 148.097C658.255 169.542 681.099 209.138 681.099 251.985V479.015C681.099 521.862 658.255 561.458 621.161 582.903L425.062 696.276C387.902 717.759 342.098 717.759 304.939 696.276L108.839 582.903C71.746 561.458 48.901 521.862 48.901 479.015V251.985C48.901 209.138 71.746 169.542 108.839 148.097L304.939 34.7241Z" fill="#1E5C00"/>
<path fill-rule="evenodd" clip-rule="evenodd" d="M520.561 641.064L425.062 696.276C387.902 717.759 342.098 717.759 304.939 696.276L207.581 639.989C267.095 596.185 404.461 541.497 520.561 641.064Z" fill="#009F00"/>
<path fill-rule="evenodd" clip-rule="evenodd" d="M133.716 597.285L108.839 582.903C71.746 561.458 48.901 521.862 48.901 479.015V251.985C48.901 209.138 71.746 169.542 108.839 148.097L236.949 74.0315C349.578 207.666 253.414 488.366 133.716 597.285ZM492.108 73.4863L621.161 148.097C658.255 169.542 681.099 209.138 681.099 251.985V479.015C681.099 521.862 658.255 561.458 621.161 582.903L600.572 594.806C461.045 468.014 367.259 257.081 492.108 73.4863Z" fill="#009F00"/>
<path fill-rule="evenodd" clip-rule="evenodd" d="M651.854 173.474C643.236 163.509 632.914 154.892 621.161 148.097L492.108 73.4863C451.882 132.64 434.353 194.633 433.737 255.734C524.562 244.944 603.903 213.196 651.854 173.474ZM459.453 392.785C542.981 402.06 622.107 427.997 681.099 472.716V479.015C681.099 521.862 658.254 561.458 621.161 582.903L600.572 594.806C540.406 540.132 488.746 469.812 459.453 392.785ZM255.066 402.144C226.607 481.214 182.082 553.273 133.716 597.285L108.839 582.903C77.5163 564.794 56.3534 533.742 50.5271 498.719C98.1401 452.133 172.11 419.161 255.066 402.144ZM286.467 253.877C215.234 243.385 143.362 218.087 78.6449 172.9C87.1618 163.178 97.3126 154.761 108.839 148.097L236.949 74.0315C276.208 120.612 290.099 185.062 286.467 253.877Z" fill="#008800"/>
<path fill-rule="evenodd" clip-rule="evenodd" d="M286.467 253.877C283.889 302.709 272.488 353.74 255.066 402.144C320.447 388.732 391.411 385.23 459.453 392.785C442.703 348.738 433.266 302.497 433.737 255.734C386.798 261.31 336.792 261.289 286.467 253.877Z" fill="#008800"/>
<path d="M473.501 189V277H340C325 277 274.241 308.5 273 360C271.4 426.4 317 449 340 452H424V403H374V327H523V540.5H340C280 540.5 173 487.5 173 366C173 237.271 287 189 340 189H473.501Z" fill="#16ABE3"/>
<g filter="url(#filter0_iii_301_2)">
<path fill-rule="evenodd" clip-rule="evenodd" d="M473.501 277V189H340C287 189 173 237.271 173 366C173 487.5 280 540.5 340 540.5H520.642V530.308L520.631 530.295L509.859 517.143L509.844 517.124C509.673 517.027 509.507 516.914 509.35 516.785C507.854 515.56 507.635 513.355 508.859 511.86L519.287 499.127L505.624 483.59L504.308 492.263C504.258 492.589 504.165 492.898 504.036 493.185C503.883 494.1 503.37 494.953 502.54 495.513L490.458 503.662C488.855 504.743 486.68 504.32 485.599 502.718C484.518 501.115 484.941 498.94 486.543 497.859L497.5 490.469L499.019 480.46C499.183 479.383 499.821 478.495 500.689 477.978L500.642 477.924L518.269 462.423L520.642 465.121V440H523V327H374V403H424V452H340C317 449 271.4 426.4 273 360C274.241 308.5 325 277 340 277H473.501ZM516.244 513.891L520.642 508.521V519.26L516.244 513.891ZM511.642 462C511.642 467.523 507.165 472 501.642 472C496.119 472 491.642 467.523 491.642 462C491.642 456.477 496.119 452 501.642 452C507.165 452 511.642 456.477 511.642 462Z" fill="white"/>
</g>
</g>
<defs>
<filter id="filter0_iii_301_2" x="173" y="189" width="350" height="355.5" filterUnits="userSpaceOnUse" color-interpolation-filters="sRGB">
<feFlood flood-opacity="0" result="BackgroundImageFix"/>
<feBlend mode="normal" in="SourceGraphic" in2="BackgroundImageFix" result="shape"/>
<feColorMatrix in="SourceAlpha" type="matrix" values="0 0 0 0 0 0 0 0 0 0 0 0 0 0 0 0 0 0 127 0" result="hardAlpha"/>
<feOffset dy="4"/>
<feGaussianBlur stdDeviation="3"/>
<feComposite in2="hardAlpha" operator="arithmetic" k2="-1" k3="1"/>
<feColorMatrix type="matrix" values="0 0 0 0 0 0 0 0 0 0 0 0 0 0 0 0 0 0 0.25 0"/>
<feBlend mode="normal" in2="shape" result="effect1_innerShadow_301_2"/>
<feColorMatrix in="SourceAlpha" type="matrix" values="0 0 0 0 0 0 0 0 0 0 0 0 0 0 0 0 0 0 127 0" result="hardAlpha"/>
<feOffset dy="4"/>
<feGaussianBlur stdDeviation="5"/>
<feComposite in2="hardAlpha" operator="arithmetic" k2="-1" k3="1"/>
<feColorMatrix type="matrix" values="0 0 0 0 0 0 0 0 0 0 0 0 0 0 0 0 0 0 0.25 0"/>
<feBlend mode="normal" in2="effect1_innerShadow_301_2" result="effect2_innerShadow_301_2"/>
<feColorMatrix in="SourceAlpha" type="matrix" values="0 0 0 0 0 0 0 0 0 0 0 0 0 0 0 0 0 0 127 0" result="hardAlpha"/>
<feOffset dy="4"/>
<feGaussianBlur stdDeviation="5"/>
<feComposite in2="hardAlpha" operator="arithmetic" k2="-1" k3="1"/>
<feColorMatrix type="matrix" values="0 0 0 0 0 0 0 0 0 0 0 0 0 0 0 0 0 0 0.25 0"/>
<feBlend mode="normal" in2="effect2_innerShadow_301_2" result="effect3_innerShadow_301_2"/>
</filter>
<clipPath id="clip0_301_2">
<rect width="730" height="731" fill="white"/>
</clipPath>
</defs>
</svg>
